<svg id="svg" version="1.1" xmlns="http://www.w3.org/2000/svg" xmlns:xlink="http://www.w3.org/1999/xlink" width="400" height="160" viewBox="0, 0, 400,160"><g id="svgg"><path id="path0" d="M99.450 23.439 C 99.386 23.503,99.333 23.806,99.333 24.111 L 99.333 24.667 97.125 24.669 C 94.375 24.672,94.204 24.714,94.071 25.426 C 93.977 25.922,93.901 25.987,93.358 26.033 C 92.790 26.080,92.747 26.123,92.699 26.690 L 92.649 27.297 91.500 27.362 C 90.090 27.441,90.108 27.423,90.028 28.842 L 89.962 30.000 89.315 30.000 C 88.671 30.000,88.667 30.005,88.667 30.657 C 88.667 31.295,88.649 31.315,88.042 31.365 C 87.454 31.414,87.414 31.453,87.366 32.025 C 87.321 32.568,87.256 32.644,86.759 32.737 C 86.122 32.857,86.006 33.122,86.002 34.458 C 86.000 35.305,85.985 35.333,85.533 35.333 C 84.825 35.333,84.667 35.613,84.667 36.867 C 84.667 37.997,84.665 38.000,84.200 38.000 C 83.430 38.000,83.333 38.243,83.333 40.190 L 83.333 41.980 82.708 42.032 L 82.083 42.083 82.036 44.032 L 81.990 45.980 81.370 46.032 L 80.750 46.083 80.703 48.042 L 80.656 50.000 80.195 50.000 C 79.372 50.000,79.333 50.160,79.333 53.533 L 79.333 56.667 78.867 56.667 C 77.996 56.667,78.000 56.635,78.000 62.867 L 78.000 68.667 77.520 68.667 C 76.636 68.667,76.661 68.288,76.707 80.852 L 76.750 92.583 77.373 92.635 L 77.996 92.687 78.040 98.635 L 78.083 104.583 78.705 104.635 L 79.326 104.686 79.372 107.968 L 79.417 111.250 80.042 111.302 L 80.667 111.353 80.669 113.552 C 80.672 116.298,80.713 116.462,81.435 116.598 L 82.000 116.704 82.002 118.227 C 82.005 120.250,82.075 120.468,82.762 120.597 L 83.320 120.701 83.368 121.976 L 83.417 123.250 84.035 123.301 L 84.653 123.353 84.701 124.635 L 84.750 125.917 85.375 125.968 L 86.000 126.020 86.000 127.143 C 86.000 128.382,86.160 128.667,86.857 128.667 C 87.264 128.667,87.319 128.734,87.365 129.292 C 87.414 129.883,87.451 129.919,88.042 129.968 L 88.667 130.020 88.669 130.885 C 88.672 132.207,88.791 132.477,89.419 132.595 C 89.878 132.681,89.986 132.788,90.072 133.247 C 90.190 133.877,90.459 133.994,91.792 133.998 L 92.667 134.000 92.667 134.667 L 92.667 135.333 93.333 135.333 C 93.952 135.333,94.000 135.367,94.000 135.800 C 94.000 136.570,94.243 136.667,96.190 136.667 L 97.980 136.667 98.032 137.292 L 98.083 137.917 101.417 137.965 C 105.603 138.027,105.787 137.998,105.928 137.250 L 106.035 136.680 107.309 136.632 L 108.583 136.583 108.635 135.965 L 108.686 135.347 109.968 135.299 L 111.250 135.250 111.301 134.634 C 111.349 134.056,111.390 134.016,111.968 133.968 C 112.546 133.920,112.586 133.879,112.634 133.301 C 112.683 132.723,112.723 132.683,113.301 132.634 C 113.879 132.586,113.920 132.546,113.968 131.968 C 114.016 131.390,114.056 131.349,114.634 131.301 C 115.211 131.253,115.253 131.212,115.301 130.642 C 115.346 130.099,115.411 130.023,115.907 129.929 C 116.544 129.810,116.661 129.545,116.664 128.208 C 116.667 127.362,116.682 127.333,117.133 127.333 C 117.841 127.333,118.000 127.053,118.000 125.810 L 118.000 124.687 118.625 124.635 L 119.250 124.583 119.299 123.292 C 119.347 122.005,119.349 122.000,119.807 122.000 C 120.570 122.000,120.667 121.753,120.667 119.810 L 120.667 118.020 121.292 117.968 L 121.917 117.917 121.964 115.958 L 122.011 114.000 122.472 114.000 C 123.271 114.000,123.333 113.795,123.333 111.152 L 123.333 108.704 123.898 108.598 C 124.650 108.457,124.662 108.391,124.664 104.227 L 124.667 100.704 125.244 100.596 C 126.056 100.443,126.017 101.520,125.964 80.750 L 125.917 62.083 125.292 62.032 L 124.667 61.980 124.664 57.782 C 124.662 52.893,124.659 52.878,123.898 52.736 L 123.333 52.630 123.331 50.440 C 123.328 47.702,123.287 47.538,122.565 47.402 L 122.000 47.296 122.000 45.515 C 122.000 43.577,121.903 43.333,121.133 43.333 L 120.667 43.333 120.664 41.792 C 120.661 39.745,120.593 39.533,119.898 39.402 L 119.333 39.296 119.333 38.181 C 119.333 36.947,119.173 36.667,118.467 36.667 C 118.015 36.667,118.000 36.638,117.998 35.792 C 117.994 34.455,117.878 34.190,117.241 34.071 C 116.744 33.977,116.679 33.901,116.634 33.358 C 116.586 32.786,116.546 32.747,115.958 32.698 L 115.333 32.647 115.331 31.782 C 115.328 30.456,115.210 30.190,114.574 30.071 C 114.078 29.977,114.013 29.901,113.967 29.358 C 113.920 28.788,113.878 28.747,113.301 28.699 C 112.723 28.651,112.683 28.610,112.634 28.032 C 112.587 27.455,112.545 27.413,111.975 27.366 C 111.432 27.321,111.356 27.256,111.263 26.759 C 111.143 26.123,110.878 26.006,109.552 26.002 L 108.687 26.000 108.635 25.375 L 108.583 24.750 105.968 24.704 L 103.353 24.658 103.301 24.037 L 103.250 23.417 101.408 23.370 C 100.395 23.344,99.514 23.375,99.450 23.439 M324.783 23.439 C 324.719 23.503,324.667 23.806,324.667 24.111 L 324.667 24.667 322.458 24.669 C 319.708 24.672,319.537 24.714,319.404 25.426 C 319.311 25.922,319.235 25.987,318.691 26.033 C 318.123 26.080,318.080 26.123,318.033 26.690 L 317.982 27.297 316.833 27.362 C 315.423 27.441,315.441 27.423,315.361 28.842 L 315.296 30.000 314.648 30.000 C 314.005 30.000,314.000 30.005,314.000 30.657 C 314.000 31.295,313.983 31.315,313.375 31.365 C 312.787 31.414,312.747 31.453,312.699 32.025 C 312.654 32.568,312.589 32.644,312.093 32.737 C 311.456 32.857,311.339 33.122,311.336 34.458 C 311.333 35.305,311.318 35.333,310.867 35.333 C 310.158 35.333,310.000 35.613,310.000 36.867 C 310.000 37.997,309.999 38.000,309.533 38.000 C 308.763 38.000,308.667 38.243,308.667 40.190 L 308.667 41.980 308.042 42.032 L 307.417 42.083 307.370 44.032 L 307.323 45.980 306.703 46.032 L 306.083 46.083 306.036 48.042 L 305.989 50.000 305.528 50.000 C 304.706 50.000,304.667 50.160,304.667 53.533 L 304.667 56.667 304.200 56.667 C 303.329 56.667,303.333 56.635,303.333 62.867 L 303.333 68.667 302.854 68.667 C 301.969 68.667,301.995 68.288,302.041 80.852 L 302.083 92.583 302.706 92.635 L 303.329 92.687 303.373 98.635 L 303.417 104.583 304.038 104.635 L 304.660 104.686 304.705 107.968 L 304.750 111.250 305.375 111.302 L 306.000 111.353 306.002 113.552 C 306.005 116.298,306.046 116.462,306.768 116.598 L 307.333 116.704 307.336 118.227 C 307.339 120.250,307.409 120.468,308.095 120.597 L 308.653 120.701 308.702 121.976 L 308.750 123.250 309.368 123.301 L 309.986 123.353 310.035 124.635 L 310.083 125.917 310.708 125.968 L 311.333 126.020 311.333 127.143 C 311.333 128.382,311.493 128.667,312.190 128.667 C 312.597 128.667,312.652 128.734,312.698 129.292 C 312.747 129.883,312.784 129.919,313.375 129.968 L 314.000 130.020 314.002 130.885 C 314.006 132.207,314.124 132.477,314.753 132.595 C 315.212 132.681,315.319 132.788,315.405 133.247 C 315.523 133.877,315.792 133.994,317.125 133.998 L 318.000 134.000 318.000 134.667 L 318.000 135.333 318.667 135.333 C 319.286 135.333,319.333 135.367,319.333 135.800 C 319.333 136.570,319.577 136.667,321.523 136.667 L 323.313 136.667 323.365 137.292 L 323.417 137.917 326.750 137.965 C 330.936 138.027,331.121 137.998,331.261 137.250 L 331.368 136.680 332.642 136.632 L 333.917 136.583 333.968 135.965 L 334.019 135.347 335.301 135.299 L 336.583 135.250 336.634 134.634 C 336.683 134.056,336.723 134.016,337.301 133.968 C 337.879 133.920,337.920 133.879,337.968 133.301 C 338.016 132.723,338.056 132.683,338.634 132.634 C 339.213 132.586,339.253 132.546,339.301 131.968 C 339.349 131.390,339.390 131.349,339.968 131.301 C 340.545 131.253,340.587 131.212,340.634 130.642 C 340.679 130.099,340.744 130.023,341.241 129.929 C 341.878 129.810,341.994 129.545,341.998 128.208 C 342.000 127.362,342.015 127.333,342.467 127.333 C 343.174 127.333,343.333 127.053,343.333 125.810 L 343.333 124.687 343.958 124.635 L 344.583 124.583 344.632 123.292 C 344.681 122.005,344.682 122.000,345.140 122.000 C 345.903 122.000,346.000 121.753,346.000 119.810 L 346.000 118.020 346.625 117.968 L 347.250 117.917 347.297 115.958 L 347.344 114.000 347.805 114.000 C 348.605 114.000,348.667 113.795,348.667 111.152 L 348.667 108.704 349.232 108.598 C 349.984 108.457,349.995 108.391,349.998 104.227 L 350.000 100.704 350.577 100.596 C 351.389 100.443,351.350 101.520,351.297 80.750 L 351.250 62.083 350.625 62.032 L 350.000 61.980 349.998 57.782 C 349.995 52.893,349.993 52.878,349.232 52.736 L 348.667 52.630 348.664 50.440 C 348.662 47.702,348.620 47.538,347.898 47.402 L 347.333 47.296 347.333 45.515 C 347.333 43.577,347.237 43.333,346.467 43.333 L 346.000 43.333 345.998 41.792 C 345.995 39.745,345.927 39.533,345.232 39.402 L 344.667 39.296 344.667 38.181 C 344.667 36.947,344.506 36.667,343.800 36.667 C 343.348 36.667,343.333 36.638,343.331 35.792 C 343.328 34.455,343.211 34.190,342.574 34.071 C 342.078 33.977,342.013 33.901,341.967 33.358 C 341.920 32.786,341.879 32.747,341.292 32.698 L 340.667 32.647 340.664 31.782 C 340.661 30.456,340.543 30.190,339.907 30.071 C 339.411 29.977,339.346 29.901,339.301 29.358 C 339.253 28.788,339.211 28.747,338.634 28.699 C 338.056 28.651,338.016 28.610,337.968 28.032 C 337.920 27.455,337.878 27.413,337.309 27.366 C 336.765 27.321,336.689 27.256,336.596 26.759 C 336.477 26.123,336.211 26.006,334.885 26.002 L 334.020 26.000 333.968 25.375 L 333.917 24.750 331.301 24.704 L 328.686 24.658 328.635 24.037 L 328.583 23.417 326.741 23.370 C 325.728 23.344,324.847 23.375,324.783 23.439 M374.111 24.778 C 374.050 24.839,374.000 25.136,374.000 25.437 L 374.000 25.986 372.708 26.035 L 371.417 26.083 371.366 26.699 C 371.317 27.277,371.277 27.317,370.699 27.366 C 370.121 27.414,370.080 27.454,370.032 28.032 C 369.984 28.610,369.944 28.651,369.366 28.699 C 368.787 28.747,368.747 28.787,368.699 29.366 C 368.651 29.944,368.610 29.984,368.032 30.032 C 367.452 30.080,367.414 30.119,367.365 30.708 C 367.319 31.266,367.264 31.333,366.857 31.333 C 366.160 31.333,366.000 31.618,366.000 32.857 L 366.000 33.980 365.375 34.032 L 364.750 34.083 364.701 35.365 L 364.653 36.647 364.035 36.699 L 363.417 36.750 363.370 38.699 L 363.323 40.647 362.703 40.699 L 362.083 40.750 362.037 43.365 L 361.992 45.980 361.371 46.032 L 360.750 46.083 360.750 55.333 L 360.750 64.583 361.375 64.635 L 362.000 64.687 362.000 67.810 C 362.000 71.176,362.039 71.333,362.867 71.333 L 363.333 71.333 363.336 72.875 C 363.339 74.922,363.407 75.134,364.102 75.264 C 364.656 75.369,364.667 75.386,364.669 76.227 C 364.672 77.544,364.791 77.810,365.426 77.929 C 365.922 78.023,365.987 78.099,366.033 78.642 C 366.080 79.212,366.122 79.253,366.699 79.301 C 367.277 79.349,367.317 79.390,367.366 79.968 C 367.414 80.548,367.453 80.586,368.042 80.635 L 368.667 80.687 368.669 81.552 C 368.672 82.874,368.791 83.144,369.419 83.262 C 369.881 83.348,369.986 83.454,370.074 83.926 C 370.163 84.401,370.266 84.503,370.741 84.593 C 371.213 84.681,371.319 84.785,371.405 85.247 C 371.523 85.876,371.793 85.994,373.115 85.998 L 373.980 86.000 374.032 86.625 C 374.080 87.214,374.119 87.253,374.699 87.301 C 375.277 87.349,375.317 87.390,375.366 87.968 C 375.413 88.545,375.455 88.587,376.025 88.634 C 376.568 88.679,376.644 88.744,376.737 89.241 C 376.857 89.877,377.122 89.994,378.448 89.998 L 379.313 90.000 379.365 90.625 C 379.414 91.213,379.453 91.253,380.025 91.301 C 380.568 91.346,380.644 91.411,380.737 91.907 C 380.857 92.544,381.122 92.661,382.458 92.664 L 383.333 92.667 383.333 93.333 L 383.333 94.000 384.000 94.000 L 384.667 94.000 384.667 94.667 L 384.667 95.333 385.333 95.333 L 386.000 95.333 386.000 96.467 C 386.000 97.717,386.158 98.000,386.860 98.000 C 387.318 98.000,387.319 98.005,387.368 99.292 L 387.417 100.583 388.042 100.635 L 388.667 100.687 388.667 106.010 L 388.667 111.333 388.200 111.333 C 387.430 111.333,387.333 111.577,387.333 113.523 L 387.333 115.313 386.708 115.365 C 386.119 115.414,386.080 115.452,386.032 116.032 C 385.984 116.610,385.944 116.651,385.366 116.699 C 384.785 116.747,384.747 116.786,384.698 117.375 L 384.647 118.000 381.323 118.000 L 378.000 118.000 378.000 117.533 C 378.000 116.826,377.720 116.667,376.477 116.667 L 375.353 116.667 375.302 116.042 C 375.253 115.451,375.216 115.414,374.625 115.365 C 374.017 115.315,374.000 115.295,374.000 114.657 C 374.000 114.002,373.998 114.000,373.333 114.000 L 372.667 114.000 372.664 109.125 C 372.662 103.514,372.666 103.546,371.902 103.403 L 371.340 103.298 371.295 100.024 L 371.250 96.750 366.187 96.706 C 362.590 96.674,361.057 96.717,360.895 96.851 C 360.580 97.113,360.552 122.819,360.867 123.133 C 360.977 123.243,361.277 123.333,361.533 123.333 C 361.999 123.333,362.000 123.337,362.000 124.467 C 362.000 125.716,362.159 126.000,362.857 126.000 C 363.264 126.000,363.319 126.067,363.365 126.625 C 363.414 127.216,363.451 127.253,364.042 127.302 L 364.667 127.353 364.669 128.218 C 364.672 129.544,364.790 129.810,365.426 129.929 C 365.922 130.023,365.987 130.099,366.033 130.642 C 366.080 131.212,366.122 131.253,366.699 131.301 C 367.277 131.349,367.317 131.390,367.366 131.968 C 367.414 132.546,367.454 132.586,368.032 132.634 C 368.610 132.683,368.651 132.723,368.699 133.301 L 368.750 133.917 370.032 133.965 L 371.314 134.014 371.365 134.632 C 371.413 135.212,371.454 135.253,372.025 135.301 C 372.568 135.346,372.644 135.411,372.737 135.907 C 372.871 136.619,373.042 136.662,375.782 136.664 L 377.980 136.667 378.032 137.292 L 378.083 137.917 381.417 137.965 C 385.610 138.027,385.787 137.999,385.929 137.244 L 386.037 136.667 387.819 136.667 C 389.751 136.667,390.000 136.569,390.000 135.810 C 390.000 135.403,390.067 135.348,390.625 135.302 C 391.216 135.253,391.253 135.216,391.302 134.625 L 391.353 134.000 392.218 133.998 C 393.541 133.994,393.810 133.876,393.928 133.247 C 394.014 132.788,394.122 132.681,394.581 132.595 C 395.209 132.477,395.328 132.207,395.331 130.885 L 395.333 130.020 395.958 129.968 C 396.546 129.920,396.586 129.880,396.634 129.309 C 396.679 128.765,396.744 128.689,397.241 128.596 C 397.876 128.477,397.994 128.210,397.998 126.894 C 398.000 126.053,398.010 126.035,398.565 125.931 C 399.260 125.801,399.328 125.588,399.331 123.542 C 399.333 122.112,399.358 122.000,399.667 122.000 C 399.998 122.000,400.000 121.889,400.000 106.000 C 400.000 90.111,399.998 90.000,399.667 90.000 C 399.358 90.000,399.333 89.888,399.331 88.458 C 399.328 86.412,399.260 86.199,398.565 86.069 L 398.000 85.963 398.000 84.848 C 398.000 83.614,397.839 83.333,397.133 83.333 C 396.682 83.333,396.667 83.305,396.664 82.458 C 396.661 81.122,396.544 80.857,395.907 80.737 C 395.411 80.644,395.346 80.568,395.301 80.025 C 395.253 79.455,395.211 79.413,394.634 79.366 C 394.056 79.317,394.016 79.277,393.968 78.699 C 393.920 78.121,393.879 78.080,393.301 78.032 C 392.723 77.984,392.683 77.944,392.634 77.366 C 392.586 76.787,392.546 76.747,391.968 76.699 C 391.390 76.651,391.349 76.610,391.301 76.032 C 391.253 75.454,391.213 75.414,390.634 75.366 C 390.056 75.317,390.016 75.277,389.968 74.699 C 389.920 74.121,389.879 74.080,389.301 74.032 C 388.723 73.984,388.683 73.944,388.634 73.366 C 388.587 72.789,388.545 72.747,387.975 72.699 C 387.432 72.654,387.356 72.589,387.263 72.093 C 387.143 71.457,386.878 71.339,385.552 71.336 L 384.687 71.333 384.635 70.708 C 384.586 70.121,384.547 70.080,383.975 70.033 C 383.432 69.987,383.356 69.922,383.263 69.426 C 383.143 68.790,382.878 68.672,381.552 68.669 L 380.687 68.667 380.635 68.042 C 380.586 67.453,380.548 67.414,379.968 67.366 C 379.390 67.317,379.349 67.277,379.301 66.699 C 379.253 66.121,379.213 66.080,378.634 66.032 C 378.056 65.984,378.016 65.944,377.968 65.366 C 377.920 64.787,377.879 64.747,377.301 64.699 C 376.723 64.651,376.683 64.610,376.634 64.032 C 376.586 63.453,376.547 63.414,375.965 63.365 L 375.347 63.314 375.299 62.032 L 375.250 60.750 374.625 60.698 L 374.000 60.647 374.000 55.333 L 374.000 50.020 374.625 49.968 L 375.250 49.917 375.299 48.625 C 375.347 47.338,375.349 47.333,375.807 47.333 C 376.387 47.333,376.667 47.058,376.667 46.485 C 376.667 46.106,376.755 46.020,377.244 45.929 C 377.737 45.836,377.836 45.739,377.927 45.253 C 378.023 44.743,378.096 44.680,378.642 44.634 C 379.214 44.586,379.253 44.546,379.302 43.958 L 379.353 43.333 381.325 43.333 L 383.296 43.333 383.402 43.898 C 383.523 44.543,383.785 44.661,385.106 44.664 C 385.947 44.667,385.965 44.677,386.069 45.232 C 386.190 45.879,386.450 45.994,387.792 45.998 L 388.667 46.000 388.669 46.875 C 388.672 48.215,388.788 48.476,389.433 48.597 L 389.996 48.703 390.040 55.310 L 390.083 61.917 395.042 61.961 L 400.000 62.005 400.000 49.336 C 400.000 36.869,399.995 36.667,399.674 36.667 C 399.382 36.667,399.342 36.530,399.299 35.375 L 399.250 34.083 398.634 34.032 C 398.056 33.984,398.016 33.944,397.968 33.366 C 397.920 32.785,397.881 32.747,397.292 32.698 C 396.684 32.648,396.667 32.628,396.667 31.990 C 396.667 31.335,396.665 31.333,396.000 31.333 L 395.333 31.333 395.333 30.667 L 395.333 30.000 394.667 30.000 L 394.000 30.000 394.000 29.333 C 394.000 28.668,393.998 28.667,393.343 28.667 C 392.705 28.667,392.685 28.649,392.635 28.042 C 392.586 27.451,392.549 27.414,391.958 27.365 C 391.401 27.319,391.333 27.264,391.333 26.857 C 391.333 26.159,391.049 26.000,389.800 26.000 C 388.670 26.000,388.667 25.999,388.667 25.533 C 388.667 25.277,388.577 24.977,388.467 24.867 C 388.249 24.649,374.326 24.563,374.111 24.778 M134.000 33.800 C 134.000 42.879,133.765 42.000,136.190 42.000 L 137.980 42.000 138.032 42.625 C 138.081 43.216,138.117 43.253,138.708 43.302 L 139.333 43.353 139.333 80.677 L 139.333 118.000 138.867 118.000 C 138.276 118.000,138.000 118.274,138.000 118.860 C 138.000 119.318,137.995 119.319,136.708 119.368 L 135.417 119.417 135.365 120.042 C 135.315 120.649,135.295 120.667,134.657 120.667 L 134.000 120.667 134.000 128.001 L 134.000 135.336 145.958 135.293 L 157.917 135.250 157.917 128.000 L 157.917 120.750 157.301 120.699 C 156.723 120.651,156.683 120.610,156.634 120.032 L 156.583 119.417 155.292 119.368 C 154.005 119.319,154.000 119.318,154.000 118.860 C 154.000 118.274,153.724 118.000,153.133 118.000 L 152.667 118.000 152.667 105.333 L 152.667 92.667 156.667 92.667 L 160.667 92.667 160.667 93.133 C 160.667 93.726,160.941 94.000,161.533 94.000 C 161.933 94.000,162.000 94.067,162.000 94.467 C 162.000 95.059,162.274 95.333,162.867 95.333 C 163.318 95.333,163.333 95.362,163.336 96.208 C 163.339 97.547,163.455 97.810,164.097 97.930 L 164.656 98.035 164.703 99.976 L 164.750 101.917 165.375 101.968 L 166.000 102.020 166.000 113.810 C 166.000 126.458,165.968 126.000,166.861 126.000 L 167.323 126.000 167.370 127.958 L 167.417 129.917 168.035 129.968 L 168.653 130.019 168.701 131.301 L 168.750 132.583 169.375 132.635 C 169.983 132.685,170.000 132.705,170.000 133.343 C 170.000 133.997,170.003 134.000,170.657 134.000 C 171.295 134.000,171.315 134.017,171.365 134.625 L 171.417 135.250 177.333 135.250 L 183.250 135.250 183.250 128.000 L 183.250 120.750 182.625 120.698 C 182.067 120.652,182.000 120.597,182.000 120.190 C 182.000 119.492,181.716 119.333,180.468 119.333 L 179.336 119.333 179.293 110.708 L 179.250 102.083 178.628 102.032 L 178.005 101.980 177.961 97.365 L 177.917 92.750 177.297 92.699 L 176.677 92.647 176.630 90.699 L 176.583 88.750 175.965 88.699 L 175.347 88.647 175.299 87.365 L 175.250 86.083 174.625 86.032 L 174.000 85.980 174.000 84.857 C 174.000 83.621,173.840 83.333,173.151 83.333 C 172.265 83.333,172.356 80.762,173.248 80.595 C 173.877 80.477,173.994 80.208,173.998 78.875 C 174.000 78.028,174.015 78.000,174.467 78.000 C 175.173 78.000,175.333 77.719,175.333 76.485 L 175.333 75.370 175.898 75.264 C 176.620 75.129,176.662 74.965,176.664 72.218 L 176.667 70.020 177.292 69.968 L 177.917 69.917 177.917 57.333 L 177.917 44.750 177.292 44.698 L 176.667 44.647 176.667 42.190 C 176.667 39.539,176.605 39.333,175.807 39.333 C 175.349 39.333,175.347 39.329,175.299 38.042 L 175.250 36.750 174.632 36.699 L 174.014 36.647 173.965 35.365 L 173.917 34.083 173.292 34.032 L 172.667 33.980 172.664 33.115 C 172.661 31.789,172.543 31.523,171.907 31.404 C 171.411 31.311,171.346 31.235,171.301 30.691 C 171.253 30.122,171.211 30.080,170.634 30.032 C 170.056 29.984,170.016 29.944,169.968 29.366 C 169.920 28.789,169.878 28.747,169.309 28.699 C 168.765 28.654,168.689 28.589,168.596 28.093 C 168.477 27.456,168.211 27.339,166.875 27.336 C 166.028 27.333,166.000 27.318,166.000 26.867 C 166.000 25.959,166.762 26.000,149.800 26.000 L 134.000 26.000 134.000 33.800 M190.000 33.799 C 190.000 42.879,189.765 42.000,192.190 42.000 L 193.980 42.000 194.032 42.625 C 194.081 43.216,194.117 43.253,194.708 43.302 L 195.333 43.353 195.333 80.677 L 195.333 118.000 194.867 118.000 C 194.276 118.000,194.000 118.274,194.000 118.860 C 194.000 119.318,193.995 119.319,192.708 119.368 L 191.417 119.417 191.365 120.042 C 191.315 120.649,191.295 120.667,190.657 120.667 L 190.000 120.667 190.000 128.001 L 190.000 135.336 201.958 135.293 L 213.917 135.250 213.917 128.000 L 213.917 120.750 213.301 120.699 C 212.723 120.651,212.683 120.610,212.634 120.032 L 212.583 119.417 211.309 119.368 L 210.035 119.320 209.928 118.750 C 209.836 118.261,209.738 118.164,209.244 118.071 L 208.667 117.963 208.667 104.648 L 208.667 91.333 210.000 91.333 L 211.333 91.333 211.333 91.800 C 211.333 92.391,211.608 92.667,212.195 92.667 L 212.656 92.667 212.703 94.625 L 212.750 96.583 213.370 96.635 L 213.990 96.686 214.036 98.635 L 214.083 100.583 214.703 100.635 L 215.323 100.686 215.370 102.635 L 215.417 104.583 216.036 104.635 L 216.656 104.686 216.703 106.635 L 216.750 108.583 217.375 108.635 L 218.000 108.687 218.002 110.885 C 218.005 113.631,218.046 113.796,218.768 113.931 L 219.333 114.037 219.333 115.819 C 219.333 117.756,219.430 118.000,220.200 118.000 C 220.633 118.000,220.667 118.048,220.667 118.667 C 220.667 119.286,220.633 119.333,220.200 119.333 C 219.611 119.333,219.333 119.607,219.333 120.190 C 219.333 120.597,219.266 120.652,218.708 120.698 L 218.083 120.750 218.083 128.000 L 218.083 135.250 229.380 135.293 L 240.676 135.336 240.630 127.515 C 240.604 123.214,240.521 119.632,240.445 119.555 C 240.369 119.479,239.492 119.391,238.496 119.360 L 236.685 119.304 236.634 118.694 C 236.586 118.119,236.546 118.080,235.958 118.032 L 235.333 117.980 235.333 116.190 C 235.333 114.243,235.237 114.000,234.467 114.000 L 234.000 114.000 234.000 112.200 C 234.000 110.243,233.904 110.000,233.133 110.000 L 232.667 110.000 232.667 108.200 C 232.667 106.243,232.571 106.000,231.800 106.000 L 231.333 106.000 231.333 104.200 C 231.333 102.243,231.238 102.000,230.467 102.000 L 230.000 102.000 230.000 100.200 C 230.000 98.243,229.904 98.000,229.133 98.000 L 228.667 98.000 228.667 96.200 C 228.667 94.243,228.571 94.000,227.800 94.000 L 227.333 94.000 227.333 92.200 C 227.333 90.243,227.238 90.000,226.467 90.000 L 226.000 90.000 226.000 88.200 C 226.000 86.243,225.904 86.000,225.133 86.000 L 224.667 86.000 224.667 84.200 C 224.667 82.243,224.571 82.000,223.800 82.000 L 223.333 82.000 223.333 80.200 C 223.333 78.243,223.238 78.000,222.467 78.000 C 222.033 78.000,222.000 77.952,222.000 77.333 C 222.000 76.714,222.033 76.667,222.467 76.667 C 223.237 76.667,223.333 76.423,223.333 74.477 L 223.333 72.687 223.958 72.635 L 224.583 72.583 224.630 70.635 L 224.677 68.686 225.297 68.635 L 225.917 68.583 225.964 66.635 L 226.010 64.686 226.630 64.635 L 227.250 64.583 227.298 63.309 L 227.347 62.035 227.905 61.930 C 228.592 61.801,228.661 61.584,228.664 59.542 L 228.667 58.000 229.133 58.000 C 229.904 58.000,230.000 57.757,230.000 55.810 L 230.000 54.020 230.625 53.968 L 231.250 53.917 231.297 51.968 L 231.344 50.020 231.964 49.968 L 232.583 49.917 232.630 47.968 L 232.677 46.020 233.297 45.968 L 233.917 45.917 233.965 44.625 L 234.014 43.333 234.882 43.331 C 236.212 43.328,236.477 43.210,236.597 42.572 L 236.701 42.013 237.976 41.965 L 239.250 41.917 239.301 41.301 C 239.349 40.723,239.390 40.683,239.968 40.634 L 240.583 40.583 240.583 33.333 L 240.583 26.083 228.667 26.083 L 216.750 26.083 216.750 33.333 L 216.750 40.583 217.366 40.634 C 217.944 40.683,217.984 40.723,218.032 41.301 C 218.080 41.881,218.119 41.920,218.708 41.968 C 219.631 42.045,219.681 43.231,218.768 43.402 C 218.074 43.532,218.005 43.746,218.002 45.773 L 218.000 47.296 217.435 47.402 C 216.713 47.538,216.672 47.702,216.669 50.448 L 216.667 52.647 216.042 52.698 L 215.417 52.750 215.370 54.699 L 215.323 56.647 214.703 56.699 L 214.083 56.750 214.036 58.699 L 213.990 60.647 213.370 60.699 L 212.750 60.750 212.703 62.699 L 212.656 64.647 212.036 64.699 L 211.417 64.750 211.370 66.699 L 211.323 68.647 210.703 68.699 C 210.118 68.747,210.080 68.785,210.032 69.375 C 209.981 69.983,209.962 70.000,209.323 70.000 L 208.667 70.000 208.667 56.677 L 208.667 43.353 209.292 43.302 C 209.880 43.253,209.920 43.214,209.968 42.640 L 210.018 42.029 211.829 41.973 C 212.825 41.942,213.702 41.854,213.778 41.778 C 213.854 41.702,213.917 38.139,213.917 33.861 L 213.917 26.083 201.958 26.041 L 190.000 25.998 190.000 33.799 M0.000 34.667 L 0.000 42.000 1.657 42.000 L 3.313 42.000 3.365 42.625 C 3.414 43.216,3.451 43.253,4.042 43.302 L 4.667 43.353 4.669 48.885 C 4.672 55.205,4.661 55.119,5.435 55.264 L 6.000 55.370 6.002 60.894 C 6.005 67.204,5.995 67.119,6.768 67.264 L 7.333 67.370 7.336 72.894 C 7.338 79.204,7.328 79.119,8.102 79.264 L 8.667 79.370 8.669 84.894 C 8.672 91.204,8.661 91.119,9.435 91.264 L 10.000 91.370 10.000 96.485 C 10.000 101.982,10.003 102.000,10.867 102.000 L 11.333 102.000 11.333 107.800 C 11.333 114.031,11.329 114.000,12.200 114.000 L 12.667 114.000 12.667 119.800 C 12.667 126.029,12.663 126.000,13.531 126.000 L 13.995 126.000 14.039 130.625 L 14.083 135.250 20.042 135.294 L 26.000 135.338 26.000 134.687 C 26.000 134.080,26.037 134.030,26.565 133.931 C 27.333 133.787,27.328 133.823,27.331 128.208 L 27.333 123.333 27.800 123.333 C 28.655 123.333,28.667 123.268,28.667 118.485 L 28.667 114.037 29.232 113.931 C 30.000 113.787,29.995 113.823,29.998 108.208 L 30.000 103.333 30.467 103.333 C 31.322 103.333,31.333 103.268,31.333 98.485 L 31.333 94.037 31.898 93.931 C 32.667 93.787,32.662 93.823,32.664 88.208 L 32.667 83.333 33.133 83.333 C 33.989 83.333,34.000 83.270,34.000 78.467 L 34.000 74.000 34.667 74.000 L 35.333 74.000 35.333 78.467 C 35.333 83.270,35.345 83.333,36.200 83.333 L 36.667 83.333 36.669 88.208 C 36.672 93.823,36.667 93.787,37.435 93.931 L 38.000 94.037 38.000 98.485 C 38.000 103.268,38.012 103.333,38.867 103.333 L 39.333 103.333 39.336 108.208 C 39.338 113.823,39.333 113.787,40.102 113.931 L 40.667 114.037 40.667 118.485 C 40.667 123.268,40.678 123.333,41.533 123.333 L 42.000 123.333 42.002 128.208 C 42.005 133.823,42.000 133.787,42.768 133.931 C 43.296 134.030,43.333 134.080,43.333 134.687 L 43.333 135.338 49.292 135.294 L 55.250 135.250 55.294 130.625 L 55.339 126.000 55.803 126.000 C 56.671 126.000,56.667 126.029,56.667 119.800 L 56.667 114.000 57.133 114.000 C 58.004 114.000,58.000 114.031,58.000 107.800 L 58.000 102.000 58.467 102.000 C 59.338 102.000,59.333 102.031,59.333 95.800 L 59.333 90.000 59.800 90.000 C 60.671 90.000,60.667 90.031,60.667 83.800 L 60.667 78.000 61.133 78.000 C 62.004 78.000,62.000 78.031,62.000 71.800 L 62.000 66.000 62.467 66.000 C 63.338 66.000,63.333 66.031,63.333 59.800 L 63.333 54.000 63.800 54.000 C 64.664 54.000,64.667 53.983,64.667 48.477 L 64.667 43.353 65.292 43.302 C 65.883 43.253,65.919 43.216,65.968 42.625 L 66.020 42.000 67.823 42.000 C 70.231 42.000,70.011 42.772,69.960 34.481 L 69.917 27.417 59.292 27.374 L 48.667 27.331 48.667 34.665 L 48.667 42.000 49.990 42.000 L 51.313 42.000 51.365 42.625 C 51.414 43.216,51.451 43.253,52.042 43.302 L 52.667 43.353 52.667 46.658 L 52.667 49.963 52.102 50.069 C 51.320 50.216,51.338 50.029,51.336 57.792 L 51.333 64.667 50.867 64.667 C 49.990 64.667,50.000 64.588,50.000 71.533 L 50.000 78.000 49.533 78.000 C 48.661 78.000,48.668 77.947,48.647 84.575 C 48.637 87.971,48.594 90.621,48.553 90.464 C 48.508 90.295,48.243 90.134,47.905 90.070 L 47.333 89.963 47.333 85.515 C 47.333 80.732,47.322 80.667,46.467 80.667 L 46.000 80.667 45.998 75.792 C 45.995 70.177,46.000 70.213,45.232 70.069 L 44.667 69.963 44.664 65.106 C 44.662 59.512,44.666 59.546,43.898 59.402 L 43.333 59.296 43.333 54.848 C 43.333 50.065,43.322 50.000,42.467 50.000 L 42.000 50.000 41.998 45.125 C 41.995 39.510,42.000 39.546,41.232 39.402 L 40.667 39.296 40.664 34.440 C 40.662 28.845,40.666 28.880,39.898 28.736 C 39.371 28.637,39.333 28.586,39.333 27.981 L 39.333 27.333 34.667 27.333 L 30.000 27.333 30.000 27.981 C 30.000 28.586,29.962 28.637,29.435 28.736 C 28.667 28.880,28.672 28.844,28.669 34.458 L 28.667 39.333 28.200 39.333 C 27.336 39.333,27.333 39.350,27.333 44.867 L 27.333 50.000 26.867 50.000 C 26.012 50.000,26.000 50.065,26.000 54.848 L 26.000 59.296 25.435 59.402 C 24.667 59.546,24.672 59.512,24.669 65.106 L 24.667 69.963 24.102 70.069 C 23.333 70.213,23.338 70.177,23.336 75.792 L 23.333 80.667 22.867 80.667 C 22.012 80.667,22.000 80.732,22.000 85.515 L 22.000 89.963 21.428 90.070 C 21.090 90.134,20.825 90.295,20.781 90.464 C 20.739 90.621,20.697 87.971,20.686 84.575 C 20.665 77.947,20.672 78.000,19.800 78.000 L 19.333 78.000 19.331 71.125 C 19.328 63.362,19.347 63.549,18.565 63.402 L 18.000 63.296 17.998 57.106 C 17.995 50.080,18.010 50.215,17.232 50.069 L 16.667 49.963 16.667 46.658 L 16.667 43.353 17.292 43.302 C 17.883 43.253,17.919 43.216,17.968 42.625 L 18.020 42.000 19.343 42.000 L 20.667 42.000 20.667 34.667 L 20.667 27.333 10.333 27.333 L 0.000 27.333 0.000 34.667 M103.365 43.958 C 103.414 44.546,103.453 44.586,104.025 44.634 C 104.571 44.680,104.644 44.743,104.740 45.253 C 104.830 45.735,104.931 45.837,105.407 45.926 C 105.882 46.015,105.985 46.118,106.074 46.593 C 106.163 47.069,106.265 47.170,106.747 47.260 C 107.257 47.356,107.320 47.429,107.366 47.975 C 107.414 48.546,107.455 48.587,108.035 48.635 L 108.653 48.686 108.701 49.968 L 108.750 51.250 109.375 51.302 L 110.000 51.353 110.002 53.552 C 110.005 56.295,110.047 56.462,110.764 56.597 L 111.325 56.702 111.371 59.309 L 111.417 61.917 112.042 61.968 L 112.667 62.020 112.669 69.552 C 112.672 78.020,112.650 77.784,113.435 77.931 L 114.000 78.037 114.000 80.667 L 114.000 83.296 113.435 83.402 C 112.650 83.550,112.672 83.312,112.669 91.792 L 112.667 99.333 112.200 99.333 C 111.372 99.333,111.333 99.490,111.333 102.857 L 111.333 105.980 110.708 106.032 L 110.083 106.083 110.036 108.032 L 109.990 109.980 109.370 110.032 L 108.750 110.083 108.701 111.365 L 108.653 112.647 108.035 112.699 L 107.417 112.750 107.368 114.042 L 107.319 115.333 106.660 115.333 C 106.001 115.333,106.000 115.335,106.000 116.000 L 106.000 116.667 104.867 116.667 C 103.613 116.667,103.333 116.825,103.333 117.533 L 103.333 118.000 101.343 118.000 L 99.353 118.000 99.302 117.375 C 99.253 116.786,99.215 116.747,98.634 116.699 C 98.056 116.651,98.016 116.610,97.968 116.032 C 97.920 115.454,97.879 115.414,97.301 115.366 C 96.723 115.317,96.683 115.277,96.634 114.699 C 96.586 114.119,96.547 114.080,95.958 114.032 L 95.333 113.980 95.333 112.857 C 95.333 111.614,95.174 111.333,94.467 111.333 L 94.000 111.333 93.998 109.792 C 93.995 107.748,93.926 107.532,93.237 107.403 L 92.677 107.298 92.630 105.357 L 92.583 103.417 91.958 103.365 L 91.333 103.313 91.333 98.857 C 91.333 94.064,91.322 94.000,90.467 94.000 L 90.000 94.000 90.000 80.667 L 90.000 67.333 90.467 67.333 C 91.322 67.333,91.333 67.269,91.333 62.477 L 91.333 58.020 91.958 57.968 L 92.583 57.917 92.630 55.976 L 92.677 54.035 93.237 53.930 C 93.925 53.801,93.995 53.584,93.998 51.552 L 94.000 50.020 94.625 49.968 L 95.250 49.917 95.299 48.635 L 95.347 47.353 95.965 47.301 C 96.547 47.253,96.586 47.213,96.634 46.634 C 96.683 46.056,96.723 46.016,97.301 45.968 C 97.881 45.920,97.920 45.881,97.968 45.292 L 98.020 44.667 98.885 44.664 C 100.216 44.661,100.477 44.544,100.598 43.898 L 100.704 43.333 102.008 43.333 L 103.313 43.333 103.365 43.958 M328.698 43.958 C 328.747 44.546,328.786 44.586,329.358 44.634 C 329.904 44.680,329.977 44.743,330.073 45.253 C 330.163 45.735,330.264 45.837,330.741 45.926 C 331.216 46.015,331.318 46.118,331.407 46.593 C 331.497 47.069,331.599 47.170,332.081 47.260 C 332.590 47.356,332.654 47.429,332.699 47.975 C 332.747 48.546,332.788 48.587,333.368 48.635 L 333.986 48.686 334.035 49.968 L 334.083 51.250 334.708 51.302 L 335.333 51.353 335.336 53.552 C 335.338 56.295,335.380 56.462,336.098 56.597 L 336.658 56.702 336.704 59.309 L 336.750 61.917 337.375 61.968 L 338.000 62.020 338.002 69.552 C 338.005 78.020,337.983 77.784,338.768 77.931 L 339.333 78.037 339.333 80.667 L 339.333 83.296 338.768 83.402 C 337.983 83.550,338.005 83.312,338.002 91.792 L 338.000 99.333 337.533 99.333 C 336.705 99.333,336.667 99.490,336.667 102.857 L 336.667 105.980 336.042 106.032 L 335.417 106.083 335.370 108.032 L 335.323 109.980 334.703 110.032 L 334.083 110.083 334.035 111.365 L 333.986 112.647 333.368 112.699 L 332.750 112.750 332.701 114.042 L 332.653 115.333 331.993 115.333 C 331.335 115.333,331.333 115.335,331.333 116.000 L 331.333 116.667 330.200 116.667 C 328.946 116.667,328.667 116.825,328.667 117.533 L 328.667 118.000 326.677 118.000 L 324.687 118.000 324.635 117.375 C 324.586 116.786,324.548 116.747,323.968 116.699 C 323.390 116.651,323.349 116.610,323.301 116.032 C 323.253 115.454,323.213 115.414,322.634 115.366 C 322.056 115.317,322.016 115.277,321.968 114.699 C 321.920 114.119,321.881 114.080,321.292 114.032 L 320.667 113.980 320.667 112.857 C 320.667 111.614,320.507 111.333,319.800 111.333 L 319.333 111.333 319.331 109.792 C 319.328 107.748,319.259 107.532,318.570 107.403 L 318.010 107.298 317.963 105.357 L 317.917 103.417 317.292 103.365 L 316.667 103.313 316.667 98.857 C 316.667 94.064,316.655 94.000,315.800 94.000 L 315.333 94.000 315.333 80.667 L 315.333 67.333 315.800 67.333 C 316.655 67.333,316.667 67.269,316.667 62.477 L 316.667 58.020 317.292 57.968 L 317.917 57.917 317.963 55.976 L 318.010 54.035 318.570 53.930 C 319.259 53.801,319.328 53.584,319.331 51.552 L 319.333 50.020 319.958 49.968 L 320.583 49.917 320.632 48.635 L 320.680 47.353 321.299 47.301 C 321.880 47.253,321.920 47.213,321.968 46.634 C 322.016 46.056,322.056 46.016,322.634 45.968 C 323.215 45.920,323.253 45.881,323.302 45.292 L 323.353 44.667 324.218 44.664 C 325.549 44.661,325.810 44.544,325.931 43.898 L 326.037 43.333 327.342 43.333 L 328.647 43.333 328.698 43.958 M159.333 45.133 C 159.333 45.842,159.613 46.000,160.867 46.000 L 162.000 46.000 162.000 46.667 C 162.000 47.332,162.001 47.333,162.660 47.333 L 163.319 47.333 163.368 48.625 L 163.417 49.917 164.038 49.968 L 164.660 50.020 164.705 53.302 L 164.750 56.583 165.375 56.635 L 166.000 56.687 166.000 59.333 L 166.000 61.980 165.375 62.032 L 164.750 62.083 164.704 64.691 L 164.658 67.298 164.098 67.403 C 163.456 67.523,163.339 67.786,163.336 69.115 L 163.333 69.980 162.708 70.032 C 162.119 70.080,162.080 70.119,162.032 70.699 C 161.984 71.277,161.944 71.317,161.366 71.366 C 160.785 71.414,160.747 71.453,160.698 72.042 L 160.647 72.667 156.657 72.667 L 152.667 72.667 152.667 58.667 L 152.667 44.667 156.000 44.667 L 159.333 44.667 159.333 45.133 M35.042 72.451 C 34.835 72.491,34.498 72.491,34.292 72.451 C 34.085 72.411,34.254 72.379,34.667 72.379 C 35.079 72.379,35.248 72.411,35.042 72.451 M258.114 72.775 C 258.051 72.838,258.000 73.134,258.000 73.434 C 258.000 73.944,257.959 73.983,257.375 74.032 C 256.786 74.080,256.747 74.119,256.699 74.699 C 256.651 75.277,256.610 75.317,256.032 75.366 C 255.455 75.413,255.413 75.455,255.366 76.025 C 255.321 76.568,255.256 76.644,254.759 76.737 C 254.124 76.856,254.006 77.123,254.002 78.440 C 254.000 79.281,253.990 79.298,253.435 79.402 C 252.713 79.538,252.672 79.702,252.669 82.448 L 252.667 84.647 252.042 84.698 L 251.417 84.750 251.371 88.042 L 251.326 91.333 250.863 91.333 C 249.998 91.333,250.000 91.320,250.000 97.333 C 250.000 103.907,249.791 103.333,252.181 103.333 L 253.963 103.333 254.069 103.898 C 254.204 104.621,254.368 104.662,257.125 104.664 L 259.333 104.667 259.333 104.000 C 259.333 103.381,259.367 103.333,259.800 103.333 C 260.644 103.333,260.667 103.222,260.667 99.143 L 260.667 95.353 261.292 95.302 L 261.917 95.250 261.965 93.958 L 262.014 92.667 263.330 92.667 L 264.647 92.667 264.698 93.292 C 264.747 93.883,264.784 93.919,265.375 93.968 L 266.000 94.020 266.000 95.143 C 266.000 96.386,266.159 96.667,266.867 96.667 C 267.318 96.667,267.333 96.695,267.336 97.542 C 267.339 98.878,267.456 99.143,268.093 99.263 C 268.589 99.356,268.654 99.432,268.699 99.975 C 268.747 100.547,268.787 100.586,269.375 100.635 L 270.000 100.687 270.000 101.810 C 270.000 103.049,270.160 103.333,270.857 103.333 C 271.264 103.333,271.319 103.401,271.365 103.958 C 271.414 104.547,271.452 104.586,272.032 104.634 C 272.610 104.683,272.651 104.723,272.699 105.301 C 272.747 105.881,272.786 105.920,273.375 105.968 C 273.933 106.015,274.000 106.069,274.000 106.477 C 274.000 107.236,274.249 107.333,276.181 107.333 L 277.963 107.333 278.071 107.910 C 278.271 108.976,280.395 108.981,280.595 107.915 L 280.702 107.344 282.643 107.297 L 284.583 107.250 284.634 106.634 C 284.683 106.056,284.723 106.016,285.301 105.968 C 285.879 105.920,285.920 105.879,285.968 105.301 C 286.016 104.723,286.056 104.683,286.634 104.634 L 287.250 104.583 287.299 103.301 L 287.347 102.019 287.965 101.968 L 288.583 101.917 288.632 100.625 C 288.681 99.338,288.682 99.333,289.140 99.333 C 289.938 99.333,290.000 99.128,290.000 96.477 L 290.000 94.020 290.625 93.968 L 291.250 93.917 291.295 89.958 L 291.339 86.000 291.816 86.000 C 292.078 86.000,292.380 85.894,292.488 85.765 C 292.716 85.490,292.676 77.120,292.445 76.889 C 292.369 76.812,291.192 76.726,289.829 76.696 L 287.352 76.643 287.301 76.030 L 287.250 75.417 284.667 75.417 L 282.083 75.417 282.039 79.357 L 281.994 83.297 281.432 83.403 C 280.741 83.532,280.672 83.748,280.669 85.774 L 280.667 87.298 280.000 87.362 C 278.588 87.497,278.000 87.346,278.000 86.849 C 278.000 86.277,277.721 86.000,277.143 86.000 C 276.736 86.000,276.681 85.933,276.635 85.375 C 276.586 84.785,276.548 84.747,275.965 84.699 L 275.347 84.647 275.299 83.365 L 275.250 82.083 274.625 82.032 L 274.000 81.980 273.998 81.115 C 273.994 79.789,273.877 79.523,273.241 79.404 C 272.744 79.311,272.679 79.235,272.634 78.691 C 272.586 78.120,272.546 78.080,271.958 78.032 C 271.351 77.981,271.333 77.962,271.333 77.323 C 271.333 76.672,271.329 76.667,270.685 76.667 L 270.038 76.667 269.972 75.509 C 269.892 74.090,269.910 74.108,268.500 74.028 L 267.351 73.963 267.301 73.357 L 267.250 72.750 262.739 72.706 C 260.258 72.681,258.176 72.713,258.114 72.775 " stroke="none" fill="#7404a4" fill-rule="evenodd"></path><path id="path1" d="M34.292 72.451 C 34.498 72.491,34.835 72.491,35.042 72.451 C 35.248 72.411,35.079 72.379,34.667 72.379 C 34.254 72.379,34.085 72.411,34.292 72.451 " stroke="none" fill="#7804a4" fill-rule="evenodd"></path><path id="path2" d="M34.292 72.451 C 34.498 72.491,34.835 72.491,35.042 72.451 C 35.248 72.411,35.079 72.379,34.667 72.379 C 34.254 72.379,34.085 72.411,34.292 72.451 " stroke="none" fill="#7804a4" fill-rule="evenodd"></path><path id="path3" d="M34.292 72.451 C 34.498 72.491,34.835 72.491,35.042 72.451 C 35.248 72.411,35.079 72.379,34.667 72.379 C 34.254 72.379,34.085 72.411,34.292 72.451 " stroke="none" fill="#7804a4" fill-rule="evenodd"></path><path id="path4" d="M34.292 72.451 C 34.498 72.491,34.835 72.491,35.042 72.451 C 35.248 72.411,35.079 72.379,34.667 72.379 C 34.254 72.379,34.085 72.411,34.292 72.451 " stroke="none" fill="#7804a4" fill-rule="evenodd"></path></g></svg>